<svg id="Layer_1" data-name="Layer 1" xmlns="http://www.w3.org/2000/svg" viewBox="0 0 107.53 104.62"><defs><style>.cls-1{fill:#fff;stroke:#97cadb;stroke-miterlimit:10;stroke-width:1.57px;}.cls-2{fill:#018abe;}</style></defs><title>m</title><path class="cls-1" d="M11.25,86.08a11.94,11.94,0,0,0,6.05-7.29c1.55-5.33,2.38-11,5.9-14.74S36,53.91,36,53.91H53.65S63,59.75,64.87,63.19s1.2,16.15,6.7,12a21.12,21.12,0,0,1,12.37-3.78l10.38.82s9.74,1.8,1.36,3.75c-6.6,1.52-10.71-2-15.52,3.17s-7.73,8.76-12,9.28-7-3.27-7-3.27,2.27,17.48,1.45,24.46l-42.35.11s6.2-24.83,8.65-28.93c0,0-17.58,13.3-23.25,13.3S11.25,86.08,11.25,86.08Z"/><rect class="cls-1" x="26.39" y="16.08" width="41.67" height="41.67" rx="6.79"/><path class="cls-2" d="M41.35,48.32s2.18,4.19,6.53,4.19,5.6-4.19,5.6-4.19Z"/><path class="cls-2" d="M60.54,39.75a1,1,0,0,1-.41-.08,6.55,6.55,0,0,0-4.67,0,1.09,1.09,0,0,1-1.2-.22,1.07,1.07,0,0,1-.23-1.2,7,7,0,0,1,5-4.14,1.09,1.09,0,0,1,.34,2.15,4.55,4.55,0,0,0-1.76.81,8.13,8.13,0,0,1,3.35.6,1.08,1.08,0,0,1-.41,2.09Z"/><path class="cls-2" d="M33.91,39.75a1,1,0,0,0,.41-.08,6.55,6.55,0,0,1,4.67,0,1.09,1.09,0,0,0,1.44-1.42,7,7,0,0,0-5-4.14,1.09,1.09,0,0,0-.34,2.15,4.6,4.6,0,0,1,1.75.81,8.16,8.16,0,0,0-3.35.6,1.09,1.09,0,0,0-.59,1.42A1.07,1.07,0,0,0,33.91,39.75Z"/></svg>