<svg id="Layer_1" data-name="Layer 1" xmlns="http://www.w3.org/2000/svg" viewBox="0 0 110.08 104.62"><defs><style>.cls-1{fill:#fff;stroke:#97cadb;stroke-width:1.57px;}.cls-1,.cls-3{stroke-miterlimit:10;}.cls-2{fill:#018abe;}.cls-3{fill:none;stroke:#018abe;stroke-width:1.66px;}</style></defs><title>m</title><path class="cls-1" d="M10.67,86.33a11.9,11.9,0,0,0,6-7.29c1.55-5.33,2.38-11,5.9-14.74s12.8-10.14,12.8-10.14H53.07S62.41,60,64.29,63.44s1.2,16.15,6.7,12a21.12,21.12,0,0,1,12.37-3.78l10.38.81s9.74,1.81,1.36,3.75c-6.6,1.53-10.71-2-15.52,3.17s-7.73,8.76-12,9.28-7-3.27-7-3.27,2.27,17.49,1.45,24.46L19.61,110s6.2-24.84,8.65-28.94c0,0-17.58,13.3-23.25,13.3S10.67,86.33,10.67,86.33Z"/><rect class="cls-1" x="25.81" y="16.33" width="41.67" height="41.67" rx="6.79"/><path class="cls-2" d="M42.43,49.64s1.49,2.88,4.47,2.88a4.12,4.12,0,0,0,3.84-2.88Z"/><path class="cls-3" d="M33.8,38.82a4.2,4.2,0,0,1,3.64-1.65c2.54.09,3.18,1.65,3.18,1.65"/><path class="cls-3" d="M52.68,38.82a4.2,4.2,0,0,1,3.64-1.65c2.54.09,3.18,1.65,3.18,1.65"/></svg>